<svg width="40" height="40" viewBox="0 0 40 40" fill="none" xmlns="http://www.w3.org/2000/svg">
<path d="M20.2857 40H4.57143C2.60286 40 1 38.3986 1 36.4286V8.57146C1 8.17718 1.32 7.85718 1.71429 7.85718C2.10857 7.85718 2.42857 8.17718 2.42857 8.57146V36.4286C2.42857 37.61 3.39 38.5715 4.57143 38.5715H20.2857C20.68 38.5715 21 38.8915 21 39.2857C21 39.68 20.68 40 20.2857 40Z" fill="white"/>
<path d="M36.4286 40H27.8571C27.4629 40 27.1429 39.68 27.1429 39.2857V25C27.1429 24.6057 27.4629 24.2857 27.8571 24.2857H32.2271L32.7629 20H27.8571C27.4629 20 27.1429 19.68 27.1429 19.2857V13.5714C27.1429 12.39 28.1043 11.4286 29.2857 11.4286H32.8571V7.14286H27.8571C25.1 7.14286 22.8571 9.38571 22.8571 12.1429V19.2857C22.8571 19.68 22.5371 20 22.1429 20H17.1429V24.2857H22.1429C22.5371 24.2857 22.8571 24.6057 22.8571 25V39.2857C22.8571 39.68 22.5371 40 22.1429 40C21.7486 40 21.4286 39.68 21.4286 39.2857V25.7143H16.4286C16.0343 25.7143 15.7143 25.3943 15.7143 25V19.2857C15.7143 18.8914 16.0343 18.5714 16.4286 18.5714H21.4286V12.1429C21.4286 8.59857 24.3129 5.71429 27.8571 5.71429H33.5714C33.9657 5.71429 34.2857 6.03429 34.2857 6.42857V12.1429C34.2857 12.5371 33.9657 12.8571 33.5714 12.8571H29.2857C28.8914 12.8571 28.5714 13.1786 28.5714 13.5714V18.5714H33.5714C33.7771 18.5714 33.9714 18.66 34.1071 18.8129C34.2429 18.9657 34.3057 19.1714 34.28 19.3757L33.5657 25.09C33.5214 25.4471 33.2171 25.7143 32.8571 25.7143H28.5714V38.5714H36.4286C37.61 38.5714 38.5714 37.61 38.5714 36.4286V3.57143C38.5714 2.39 37.61 1.42857 36.4286 1.42857H3.57143C2.39 1.42857 1.42857 2.39 1.42857 3.57143V5C1.42857 5.39429 1.10857 5.71429 0.714286 5.71429C0.32 5.71429 0 5.39429 0 5V3.57143C0 1.60143 1.60286 0 3.57143 0H36.4286C38.3971 0 40 1.60143 40 3.57143V36.4286C40 38.3986 38.3971 40 36.4286 40Z" fill="white"/>
</svg>
