<svg width="42" height="42" viewBox="0 0 42 42" fill="none" xmlns="http://www.w3.org/2000/svg">
<path d="M21.2963 32.1111C27.7601 32.1111 33 27.0402 33 20.7849C33 14.5296 27.7601 9.45874 21.2963 9.45874C14.8325 9.45874 9.59259 14.5296 9.59259 20.7849C9.59259 27.0402 14.8325 32.1111 21.2963 32.1111Z" stroke="white" stroke-width="1.25" stroke-miterlimit="10" stroke-linecap="round" stroke-linejoin="round"/>
<path d="M35.5185 13.4731H41V35.4086C41 38.4194 38.4815 41 35.2222 41H6.77778C3.66667 41 1 38.5627 1 35.4086V6.5914C1 3.43728 3.66667 1 6.77778 1H35.3704C37.7407 1 39.963 2.72043 40.7037 4.7276L31.0741 4.58423C30.3333 4.58423 29.5926 5.15771 29.5926 6.01792L29.7407 8.59857" stroke="white" stroke-width="1.25" stroke-miterlimit="10" stroke-linecap="round" stroke-linejoin="round"/>
<path d="M1.29633 17.4875H9.44447" stroke="white" stroke-width="1.25" stroke-miterlimit="10" stroke-linecap="round" stroke-linejoin="round"/>
</svg>
