<svg width="88" height="69" viewBox="0 0 88 69" fill="none" xmlns="http://www.w3.org/2000/svg">
<path d="M43.3049 0.0163422C41.3057 0.103767 39.4433 0.449638 37.5467 1.08058C34.9735 1.93577 32.674 3.23946 30.5151 5.06386C29.9336 5.55037 28.7325 6.75523 28.2118 7.36717C26.3798 9.52224 25.0267 11.9396 24.1677 14.5926C22.6702 19.2334 22.8412 24.3493 24.6542 28.8647C25.5018 30.9818 26.6497 32.886 28.1586 34.68C28.6375 35.2501 29.945 36.5728 30.4315 36.9757C30.6025 37.1201 30.7432 37.257 30.7432 37.2798C30.7432 37.333 30.0894 38.4504 29.7435 38.994C28.7933 40.4801 27.6645 41.9206 26.3228 43.3725L25.8211 43.916L25.479 43.897C25.2927 43.8856 24.4338 43.8666 23.5786 43.8552C21.5299 43.821 20.2148 43.8932 18.3904 44.1289C12.0696 44.9461 6.44439 47.447 2.61314 51.13C1.83397 51.8788 0.739326 53.1483 0.568289 53.5056C0.389649 53.8704 0.385848 54.2999 0.556886 54.6838C0.720322 55.0449 1.68574 56.1738 2.58273 57.0479C7.92291 62.2513 16.8625 65.0145 25.9541 64.2695C28.6375 64.0491 31.2145 63.536 33.6508 62.7416C34.0689 62.6048 34.43 62.4869 34.4528 62.4755C34.4756 62.4679 34.5516 62.5592 34.62 62.6808C35.0305 63.4105 35.6956 64.2657 36.3646 64.9385C38.1396 66.7135 40.3783 67.7777 43.0009 68.0932C43.4912 68.154 44.8177 68.154 45.3764 68.0932C47.5353 67.8575 49.5953 67.0175 51.2297 65.7025C52.1875 64.9309 53.2365 63.7032 53.8143 62.6808C53.8827 62.5592 53.9587 62.4679 53.9815 62.4755C54.0043 62.4869 54.3654 62.6048 54.7835 62.7416C60.8192 64.7142 67.7709 64.9233 74.0537 63.3193C78.782 62.1145 82.9021 59.9252 85.8515 57.0479C86.7485 56.1738 87.7139 55.0449 87.8774 54.6838C88.0446 54.3113 88.0408 53.8666 87.866 53.5094C87.6113 52.9772 86.0454 51.2745 84.9621 50.3433C81.1689 47.0897 75.8781 44.8853 70.0438 44.1289C68.2194 43.8932 66.9043 43.821 64.8557 43.8552C64.0005 43.8666 63.1453 43.8856 62.9553 43.897L62.6132 43.916L62.1115 43.3763C60.7508 41.8978 59.6409 40.4801 58.6907 38.994C58.3449 38.4504 57.6911 37.333 57.6911 37.2798C57.6911 37.257 57.8317 37.1201 58.0066 36.9757C58.4893 36.5728 59.7968 35.2501 60.2757 34.68C61.7846 32.886 62.9325 30.9818 63.7801 28.8647C65.593 24.3493 65.7641 19.2334 64.2666 14.5926C62.9553 10.5447 60.4923 7.0441 57.064 4.36831C56.5128 3.93881 55.2548 3.09882 54.6124 2.73395C52.3509 1.45306 49.8082 0.582672 47.2198 0.21019C46.0567 0.0429535 44.4908 -0.0368652 43.3049 0.0163422ZM45.9275 2.86697C49.8006 3.27367 53.2099 4.72178 56.091 7.17332C56.6079 7.61422 57.6569 8.66325 58.0978 9.18017C60.6748 12.2056 62.1647 15.8696 62.446 19.8757C62.4992 20.6549 62.4726 22.1904 62.3889 22.9544C61.9823 26.6298 60.5835 29.9366 58.2232 32.7796C57.7215 33.3839 56.4862 34.6344 56.4444 34.585C56.3912 34.528 56.0796 33.6272 55.8857 32.9886C55.384 31.3125 55.1483 29.7693 55.1255 28.0095C55.1103 26.8997 55.0799 26.7667 54.7645 26.4208C54.1905 25.7936 53.2859 25.7936 52.712 26.4208C52.6094 26.531 52.4878 26.721 52.4383 26.8427C52.3547 27.0517 52.3509 27.0935 52.3547 28.1236C52.3585 29.5565 52.4726 30.6511 52.7728 32.0574C53.0389 33.3307 53.5064 34.832 54.0005 36.0103C54.0841 36.2079 54.1373 36.3828 54.1221 36.398C54.1069 36.4132 53.8675 36.5652 53.5862 36.7325C52.5904 37.333 51.2601 37.9525 50.1806 38.325C49.9298 38.4086 49.6979 38.4808 49.6675 38.4808C49.6371 38.4808 49.5459 38.363 49.4623 38.2224C48.9948 37.4394 47.444 35.1627 46.49 33.8704C46.2316 33.5169 46.0111 33.2091 45.9997 33.1863C45.9921 33.1597 46.1214 32.9506 46.2924 32.7226C46.7903 32.0498 47.5961 30.883 48.1168 30.081C51.1917 25.3299 52.8868 20.9704 53.1681 17.1011C53.495 12.5553 51.6022 8.79248 48.132 7.10491C46.8625 6.48917 45.65 6.21171 44.2171 6.21171C42.7842 6.21171 41.5717 6.48917 40.3023 7.10491C36.8321 8.79248 34.9393 12.5553 35.2662 17.1011C35.5968 21.6697 37.9648 27.0479 42.1419 32.7226C42.3091 32.9506 42.4421 33.1597 42.4307 33.1863C42.4231 33.2091 42.2065 33.5169 41.948 33.8704C40.8648 35.3413 39.5117 37.3254 38.9492 38.2604C38.877 38.3858 38.7933 38.4808 38.7553 38.4808C38.6755 38.4808 37.9153 38.211 37.2996 37.9639C36.6801 37.7169 35.4714 37.1087 34.8481 36.7363C34.5668 36.5652 34.3273 36.4132 34.3121 36.398C34.2969 36.3828 34.3502 36.2079 34.4338 36.0103C35.2395 34.0909 35.7983 31.894 36.0073 29.8529C36.0947 29.0282 36.1289 27.4204 36.0681 27.1087C36.0073 26.8009 35.8667 26.55 35.6462 26.341C35.0571 25.7898 34.2133 25.824 33.6698 26.4208C33.3543 26.7667 33.3239 26.8997 33.3087 28.0095C33.2859 29.7693 33.0503 31.3125 32.5486 32.9886C32.3585 33.6272 32.043 34.528 31.9936 34.585C31.948 34.6344 30.7051 33.3763 30.211 32.7796C27.8469 29.9252 26.452 26.6336 26.0453 22.9544C25.9617 22.1904 25.9351 20.6549 25.9883 19.8757C26.2696 15.9077 27.7025 12.3425 30.2452 9.29039C30.6899 8.75447 31.7998 7.63703 32.3433 7.17332C34.6808 5.18549 37.4288 3.82859 40.4125 3.19385C41.2981 3.00381 42.0621 2.90118 43.2289 2.81377C43.5786 2.78716 45.5436 2.82516 45.9275 2.86697ZM45.2244 9.08135C47.406 9.46903 49.0784 10.8563 49.888 12.9506C50.0552 13.3915 50.2529 14.1707 50.3403 14.7446C50.4277 15.3109 50.4391 16.8883 50.3631 17.5002C49.945 20.8259 48.5045 24.3341 45.9009 28.3896C45.5398 28.9483 44.4794 30.4991 44.2817 30.7575L44.2133 30.8488L43.6964 30.1114C42.788 28.8115 42.1229 27.7777 41.4539 26.6222C39.5003 23.2433 38.4323 20.3546 38.0712 17.5002C37.9952 16.8883 38.0066 15.3109 38.094 14.7446C38.4513 12.3767 39.5497 10.6815 41.3627 9.70469C42.0392 9.33981 42.7994 9.11935 43.742 9.00913C43.9929 8.97873 44.9013 9.02433 45.2244 9.08135ZM44.8291 36.3258C45.7489 37.6143 46.7675 39.1194 46.7371 39.146C46.7295 39.1498 46.547 39.1726 46.3266 39.1992C44.8975 39.355 43.5368 39.355 42.1077 39.1992C41.8872 39.1726 41.7048 39.1498 41.6972 39.146C41.644 39.1042 44.1373 35.5162 44.2171 35.5162C44.2399 35.5162 44.5136 35.8811 44.8291 36.3258ZM33.5482 39.2144C34.4984 39.7807 35.631 40.3204 36.7409 40.7461C37.0564 40.8678 37.3186 40.9818 37.3186 40.997C37.3186 41.0122 37.235 41.1756 37.1362 41.3581C36.5356 42.4413 35.8477 43.8514 35.308 45.1095C35.1445 45.4858 35.0039 45.8279 34.9887 45.8621C34.9697 45.9191 34.8785 45.8963 34.2513 45.6796C32.8298 45.1855 31.4007 44.7978 29.945 44.5052C29.5573 44.4292 29.2342 44.3569 29.2266 44.3493C29.219 44.3417 29.3026 44.2277 29.4129 44.0985C30.7203 42.5287 31.6782 41.1984 32.5942 39.6705C32.8982 39.1612 33.0503 38.9407 33.0883 38.9521C33.1149 38.9635 33.3239 39.0814 33.5482 39.2144ZM55.8439 39.6743C56.7561 41.1984 57.7139 42.5287 59.0214 44.0985C59.1316 44.2277 59.2152 44.3417 59.2076 44.3493C59.2 44.3569 58.877 44.4292 58.4893 44.5052C57.064 44.7902 55.5892 45.1931 54.1829 45.6796C53.5558 45.8963 53.4646 45.9191 53.4456 45.8621C53.4304 45.8279 53.2897 45.4858 53.1263 45.1095C52.5866 43.8552 51.91 42.4603 51.2981 41.3581C51.1993 41.1756 51.1157 41.0122 51.1157 40.997C51.1157 40.9818 51.3779 40.8678 51.6972 40.7461C52.8146 40.3204 54.0537 39.7199 55.0343 39.1308C55.2092 39.0244 55.365 38.9369 55.3764 38.9369C55.3916 38.9369 55.6006 39.2676 55.8439 39.6743ZM40.3023 41.7496C40.6139 41.8218 41.7314 41.9776 42.4117 42.0384C44.1145 42.1943 46.5699 42.0726 48.0522 41.7648C48.1966 41.7344 48.3182 41.7154 48.3258 41.723C48.3334 41.7268 48.4855 41.9966 48.6679 42.3197C49.4015 43.6348 50.2263 45.3148 50.7356 46.5424C50.8914 46.9149 50.9218 47.0175 50.8838 47.0441C50.8534 47.0593 50.5417 47.2304 50.1845 47.4204C48.7211 48.2034 47.3566 49.1118 46.1936 50.0696C45.6615 50.5105 44.7911 51.3201 44.4794 51.6622L44.2209 51.9472L43.8941 51.6013C42.4535 50.0658 40.3289 48.5075 38.0218 47.295C37.7405 47.1468 37.5087 47.0175 37.5087 47.0099C37.5087 46.9681 37.9267 45.9989 38.2346 45.3262C38.7591 44.1859 40.0552 41.7078 40.1274 41.7116C40.1388 41.7116 40.2187 41.7306 40.3023 41.7496ZM22.7614 46.645C22.7614 46.7439 20.6747 48.249 19.6067 48.9179C14.9811 51.818 10.021 53.3459 5.67662 53.2129C5.21672 53.1977 4.77582 53.1749 4.6922 53.1597L4.54397 53.1331L4.81763 52.8784C6.69904 51.1034 9.51547 49.4539 12.4611 48.401C14.9013 47.5268 17.4022 46.9909 20.1578 46.7477C21.2183 46.6526 22.7614 46.5918 22.7614 46.645ZM66.7751 46.6526C72.2369 46.8921 77.1932 48.3706 81.1157 50.9324C81.9975 51.5101 82.9667 52.2627 83.6166 52.8784L83.8903 53.1331L83.7421 53.1597C83.6584 53.1749 83.2175 53.1977 82.7576 53.2129C80.4505 53.2851 77.9002 52.8746 75.3422 52.027C72.8679 51.2061 70.1541 49.8492 67.8774 48.2946C66.95 47.6599 65.6729 46.7059 65.6729 46.645C65.6729 46.607 65.7337 46.607 66.7751 46.6526ZM27.7215 46.9567C29.5459 47.2228 31.4577 47.6751 33.0807 48.2262C33.9169 48.5075 34.0157 48.5531 33.9967 48.6215C33.5102 50.2596 33.2213 51.5519 33.0465 52.8556C32.8982 53.9541 32.8602 54.5432 32.8602 55.6226C32.864 57.0137 32.9742 58.0248 33.2555 59.2144C33.4342 59.9556 33.4874 59.8606 32.769 60.0962C29.5611 61.1376 26.0719 61.6394 22.4763 61.5785C21.0966 61.5519 20.5379 61.5177 19.2836 61.3809C14.8328 60.8868 10.6557 59.4577 7.34899 57.3026C6.85108 56.9795 5.75263 56.1738 5.66522 56.0711C5.62721 56.0217 5.74883 56.0103 6.65723 55.9913C8.46263 55.9495 10.0552 55.7291 11.91 55.2654C17.0487 53.9731 22.1989 51.1034 26.4824 47.1354C26.6573 46.9757 26.8283 46.8427 26.8625 46.8427C26.8967 46.8427 27.2844 46.8959 27.7215 46.9567ZM61.9519 47.1354C66.9728 51.7838 73.1871 54.9195 79.0708 55.7709C80.0286 55.9115 80.766 55.9685 81.7998 55.9913C82.6892 56.0103 82.8109 56.0217 82.769 56.0711C82.6816 56.1738 81.5832 56.9795 81.0853 57.3026C77.4403 59.6819 72.8717 61.1262 67.7633 61.5139C66.2886 61.628 64.0157 61.6013 62.3851 61.4531C60.0552 61.2441 57.4403 60.7044 55.4296 60.0202C54.9811 59.8682 55.0039 59.9366 55.1788 59.2144C55.46 58.0248 55.5702 57.0099 55.574 55.6226C55.574 53.3687 55.251 51.3619 54.4376 48.6215C54.4186 48.5531 54.5174 48.5075 55.3536 48.2262C56.9537 47.6827 58.858 47.2304 60.6748 46.9605C61.0929 46.8997 61.4805 46.8465 61.5338 46.8465C61.6098 46.8427 61.7162 46.9187 61.9519 47.1354ZM37.102 49.967C38.9682 50.978 40.6215 52.2133 41.9024 53.5474C42.1837 53.84 42.4117 54.0947 42.4117 54.1137C42.4117 54.1859 40.994 55.5656 40.5303 55.9495C39.3445 56.9301 37.9724 57.8233 36.5926 58.5151C36.3038 58.6595 36.0491 58.7773 36.0339 58.7773C36.0149 58.7773 35.9541 58.5607 35.8971 58.2908C35.5132 56.4436 35.5284 54.4254 35.9541 52.1563C36.1099 51.3087 36.5242 49.6933 36.5812 49.6933C36.5888 49.6933 36.8245 49.8149 37.102 49.967ZM51.948 49.9404C52.0925 50.4003 52.3699 51.5633 52.4802 52.1563C52.9059 54.4254 52.9211 56.4436 52.5372 58.2908C52.4802 58.5607 52.4193 58.7773 52.4003 58.7773C52.3851 58.7773 52.1305 58.6595 51.8416 58.5151C50.4619 57.8233 49.0898 56.9301 47.9039 55.9495C47.4402 55.5656 46.0225 54.1859 46.0225 54.1137C46.0225 54.0947 46.2506 53.84 46.5318 53.5474C47.8089 52.2171 49.3559 51.0578 51.2867 49.9898C51.5794 49.8263 51.8302 49.6933 51.8454 49.6933C51.8606 49.6933 51.9062 49.8035 51.948 49.9404ZM44.8101 56.8883C46.433 58.4923 48.322 59.8416 50.5189 60.9628L51.3437 61.3847L51.1271 61.7116C49.2684 64.4824 45.9617 65.8317 42.5866 65.1969C40.4353 64.7941 38.4665 63.479 37.254 61.6356L37.0906 61.3847L37.9191 60.9628C40.1388 59.8264 42.0621 58.4505 43.609 56.8921C43.9245 56.5766 44.1905 56.3144 44.2019 56.3106C44.2133 56.3106 44.487 56.569 44.8101 56.8883Z" fill="white"/>
</svg>
