<svg width="41" height="41" viewBox="0 0 41 41" fill="none" xmlns="http://www.w3.org/2000/svg">
<path d="M27.3047 38.7802C25.1861 39.5694 22.8938 40 20.5 40C9.73031 40 1 31.2697 1 20.5C1 9.73031 9.73031 1 20.5 1C31.2697 1 40 9.73031 40 20.5C40 27.5911 36.2148 33.7986 30.5547 37.2111" stroke="white" stroke-width="1.52344" stroke-miterlimit="10" stroke-linecap="round" stroke-linejoin="round"/>
<path d="M11.3127 25.2734C11.1552 24.2487 11.2233 22.9324 11.858 21.6152C12.9742 19.3005 15.5173 17.1312 19.1604 17.6745V21.5095C19.1604 21.5095 16.796 20.827 15.5874 22.6125C14.5098 24.206 14.9049 27.6033 18.3723 27.6033C21.4191 27.6033 21.3673 24.2405 21.3673 24.2405V14.7109" stroke="white" stroke-width="1.52344" stroke-miterlimit="10" stroke-linecap="round" stroke-linejoin="round"/>
<path d="M21.3673 11.9688V9.53125H25.1505C25.1505 9.53125 24.9403 14.4174 30.3516 14.7851V18.5155C30.3516 18.5155 27.2519 18.5155 25.1505 16.8346V24.7159C25.1505 24.7159 24.984 30.7243 18.6353 31.4403C17.0448 31.6201 14.9577 30.967 13.3815 29.4436C12.8158 28.8962 12.4187 28.3416 12.1323 27.8125" stroke="white" stroke-width="1.52344" stroke-miterlimit="10" stroke-linecap="round" stroke-linejoin="round"/>
</svg>
